<svg width="2459" height="850" xmlns="http://www.w3.org/2000/svg" xmlns:xlink="http://www.w3.org/1999/xlink" overflow="hidden"><defs><clipPath id="clip0"><rect x="505" y="1535" width="2459" height="850"/></clipPath></defs><g clip-path="url(#clip0)" transform="translate(-505 -1535)"><path d="M1389.5 1796.23 1738 1796.23 1738 1800.77 1389.5 1800.77ZM1711.64 1780.49 1742.51 1798.5 1711.64 1816.51C1710.56 1817.14 1709.17 1816.77 1708.53 1815.69 1707.9 1814.6 1708.27 1813.21 1709.35 1812.58L1736.85 1796.54 1736.85 1800.46 1709.35 1784.42C1708.27 1783.79 1707.9 1782.4 1708.53 1781.31 1709.17 1780.23 1710.56 1779.86 1711.64 1780.49Z"/><path d="M1391.5 1943.23 1740 1943.23 1740 1947.77 1391.5 1947.77ZM1713.64 1927.49 1744.51 1945.5 1713.64 1963.51C1712.56 1964.14 1711.17 1963.77 1710.53 1962.69 1709.9 1961.6 1710.27 1960.21 1711.35 1959.58L1738.85 1943.54 1738.85 1947.46 1711.35 1931.42C1710.27 1930.79 1709.9 1929.4 1710.53 1928.31 1711.17 1927.23 1712.56 1926.86 1713.64 1927.49Z"/><path d="M1405.5 2195.23 2483 2195.23 2483 2199.77 1405.5 2199.77ZM2456.64 2179.49 2487.51 2197.5 2456.64 2215.51C2455.56 2216.14 2454.17 2215.77 2453.53 2214.69 2452.9 2213.6 2453.27 2212.21 2454.35 2211.58L2481.85 2195.54 2481.85 2199.46 2454.35 2183.42C2453.27 2182.79 2452.9 2181.4 2453.53 2180.31 2454.17 2179.23 2455.56 2178.86 2456.64 2179.49Z"/><path d="M881.5 1629.5 881.5 2377.5" stroke="#000000" stroke-width="4.54724" stroke-linejoin="round" stroke-miterlimit="10" fill="none" fill-rule="evenodd"/><text font-family="Fira Sans,Fira Sans_MSFontService,sans-serif" font-weight="400" font-size="46" transform="matrix(1 0 0 1 736.728 1594)">aDrawingView<tspan font-size="46" x="590.495" y="0">aTool</tspan></text><path d="M1381.5 1629.5 1381.5 2375.5" stroke="#000000" stroke-width="4.54724" stroke-linejoin="round" stroke-miterlimit="10" fill="none" fill-rule="evenodd"/><text font-family="Fira Sans,Fira Sans_MSFontService,sans-serif" font-weight="400" font-size="46" transform="matrix(1 0 0 1 1671.69 1594)">aHandle<tspan font-size="46" x="692.42" y="0">aDrawWindow</tspan><tspan font-size="46" x="1147.36" y="0">aTool</tspan></text><path d="M1755.5 1629.5 1755.5 2377.5" stroke="#000000" stroke-width="4.54724" stroke-linejoin="round" stroke-miterlimit="10" fill="none" fill-rule="evenodd"/><path d="M2509.5 1629.5 2509.5 2382.5" stroke="#000000" stroke-width="4.54724" stroke-linejoin="round" stroke-miterlimit="10" fill="none" fill-rule="evenodd"/><path d="M2877.5 1629.5 2877.5 2380.5" stroke="#000000" stroke-width="4.54724" stroke-linejoin="round" stroke-miterlimit="10" fill="none" fill-rule="evenodd"/><text font-family="Fira Sans,Fira Sans_MSFontService,sans-serif" font-weight="400" font-size="46" transform="matrix(1 0 0 1 532.807 1707)">mouseDown<tspan font-size="46" x="0" y="151">mouseDrag</tspan><tspan font-size="46" x="0" y="309">mouseUp</tspan><tspan font-size="46" x="905.161" y="230">invokeStep</tspan><tspan font-size="46" x="905.161" y="82">invokeStart</tspan><tspan font-size="46" x="905.161" y="393">invokeEnd</tspan><tspan font-size="46" x="866.315" y="483">setDefaultTool</tspan><tspan font-size="46" x="1683.78" y="557">deactivate</tspan><tspan font-size="46" x="2044.18" y="577">activate</tspan></text><path d="M569.5 1720.23 860.999 1720.23 860.999 1724.77 569.5 1724.77ZM834.644 1704.49 865.511 1722.5 834.644 1740.51C833.559 1741.14 832.167 1740.77 831.534 1739.69 830.902 1738.6 831.268 1737.21 832.353 1736.58L859.853 1720.54 859.853 1724.46 832.353 1708.42C831.268 1707.79 830.902 1706.4 831.534 1705.31 832.167 1704.23 833.559 1703.86 834.644 1704.49Z"/><path d="M569.5 1868.23 860.999 1868.23 860.999 1872.77 569.5 1872.77ZM834.644 1852.49 865.511 1870.5 834.644 1888.51C833.559 1889.14 832.167 1888.77 831.534 1887.69 830.902 1886.6 831.268 1885.21 832.353 1884.58L859.853 1868.54 859.853 1872.46 832.353 1856.42C831.268 1855.79 830.902 1854.4 831.534 1853.31 832.167 1852.23 833.559 1851.86 834.644 1852.49Z"/><path d="M569.5 2019.23 860.999 2019.23 860.999 2023.77 569.5 2023.77ZM834.644 2003.49 865.511 2021.5 834.644 2039.51C833.559 2040.14 832.167 2039.77 831.534 2038.69 830.902 2037.6 831.268 2036.21 832.353 2035.58L859.853 2019.54 859.853 2023.46 832.353 2007.42C831.268 2006.79 830.902 2005.4 831.534 2004.31 832.167 2003.23 833.559 2002.86 834.644 2003.49Z"/><text font-family="Fira Sans,Fira Sans_MSFontService,sans-serif" font-weight="400" font-size="46" transform="matrix(1 0 0 1 948.685 1762)">mouseDown<tspan font-size="46" x="0" y="151">mouseDrag</tspan><tspan font-size="46" x="0" y="309">mouseUp</tspan></text><path d="M878.5 1775.23 1355 1775.23 1355 1779.77 878.5 1779.77ZM1328.64 1759.49 1359.51 1777.5 1328.64 1795.51C1327.56 1796.14 1326.17 1795.77 1325.53 1794.69 1324.9 1793.6 1325.27 1792.21 1326.35 1791.58L1353.85 1775.54 1353.85 1779.46 1326.35 1763.42C1325.27 1762.79 1324.9 1761.4 1325.53 1760.31 1326.17 1759.23 1327.56 1758.86 1328.64 1759.49Z"/><path d="M879.5 1923.23 1356 1923.23 1356 1927.77 879.5 1927.77ZM1329.64 1907.49 1360.51 1925.5 1329.64 1943.51C1328.56 1944.14 1327.17 1943.77 1326.53 1942.69 1325.9 1941.6 1326.27 1940.21 1327.35 1939.58L1354.85 1923.54 1354.85 1927.46 1327.35 1911.42C1326.27 1910.79 1325.9 1909.4 1326.53 1908.31 1327.17 1907.23 1328.56 1906.86 1329.64 1907.49Z"/><path d="M880.5 2074.23 1357 2074.23 1357 2078.77 880.5 2078.77ZM1330.64 2058.49 1361.51 2076.5 1330.64 2094.51C1329.56 2095.14 1328.17 2094.77 1327.53 2093.69 1326.9 2092.6 1327.27 2091.21 1328.35 2090.58L1355.85 2074.54 1355.85 2078.46 1328.35 2062.42C1327.27 2061.79 1326.9 2060.4 1327.53 2059.31 1328.17 2058.23 1329.56 2057.86 1330.64 2058.49Z"/><rect x="866.5" y="1714.5" width="30.9999" height="114" stroke="#000000" stroke-width="4.54724" stroke-linejoin="round" stroke-miterlimit="10" fill="#DDDDDD"/><rect x="865.5" y="1868.5" width="30.9999" height="113" stroke="#000000" stroke-width="4.54724" stroke-linejoin="round" stroke-miterlimit="10" fill="#DDDDDD"/><rect x="864.5" y="2021.5" width="29.9999" height="322" stroke="#000000" stroke-width="4.54724" stroke-linejoin="round" stroke-miterlimit="10" fill="#DDDDDD"/><rect x="1365.5" y="1769.5" width="31.0002" height="114" stroke="#000000" stroke-width="4.54724" stroke-linejoin="round" stroke-miterlimit="10" fill="#DDDDDD"/><rect x="1365.5" y="1916.5" width="31.0002" height="113" stroke="#000000" stroke-width="4.54724" stroke-linejoin="round" stroke-miterlimit="10" fill="#DDDDDD"/><rect x="1366.5" y="2069.5" width="26.0001" height="274" stroke="#000000" stroke-width="4.54724" stroke-linejoin="round" stroke-miterlimit="10" fill="#DDDDDD"/><path d="M1396.5 2105.23 1744 2105.23 1744 2109.77 1396.5 2109.77ZM1717.64 2089.49 1748.51 2107.5 1717.64 2125.51C1716.56 2126.14 1715.17 2125.77 1714.53 2124.69 1713.9 2123.6 1714.27 2122.21 1715.35 2121.58L1742.85 2105.54 1742.85 2109.46 1715.35 2093.42C1714.27 2092.79 1713.9 2091.4 1714.53 2090.31 1715.17 2089.23 1716.56 2088.86 1717.64 2089.49Z"/><rect x="2490.5" y="2191.5" width="33" height="152" stroke="#000000" stroke-width="4.54724" stroke-linejoin="round" stroke-miterlimit="10" fill="#DDDDDD"/><rect x="2863.5" y="2284.5" width="29.0002" height="57" stroke="#000000" stroke-width="4.54724" stroke-linejoin="round" stroke-miterlimit="10" fill="#DDDDDD"/><rect x="1743.5" y="1795.5" width="30.9999" height="74.9999" stroke="#000000" stroke-width="4.54724" stroke-linejoin="round" stroke-miterlimit="10" fill="#DDDDDD"/><rect x="1745.5" y="1939.5" width="30.9999" height="74.9999" stroke="#000000" stroke-width="4.54724" stroke-linejoin="round" stroke-miterlimit="10" fill="#DDDDDD"/><rect x="1745.5" y="2097.5" width="30.9999" height="76" stroke="#000000" stroke-width="4.54724" stroke-linejoin="round" stroke-miterlimit="10" fill="#DDDDDD"/><text font-family="Fira Sans,Fira Sans_MSFontService,sans-serif" font-weight="400" font-size="46" transform="matrix(1 0 0 1 2054.25 1594)">aFigure</text><path d="M2131.5 1627.5 2131.5 2380.5" stroke="#000000" stroke-width="4.54724" stroke-linejoin="round" stroke-miterlimit="10" fill="none" fill-rule="evenodd"/><rect x="2115.5" y="1955.5" width="32" height="70.9998" stroke="#000000" stroke-width="4.54724" stroke-linejoin="round" stroke-miterlimit="10" fill="#DDDDDD"/><text font-family="Fira Sans,Fira Sans_MSFontService,sans-serif" font-weight="400" font-size="46" transform="matrix(1 0 0 1 1831.63 1953)">moveBy</text><path d="M1779.5 1957.23 2098 1957.23 2098 1961.77 1779.5 1961.77ZM2071.64 1941.49 2102.51 1959.5 2071.64 1977.51C2070.56 1978.14 2069.17 1977.77 2068.53 1976.69 2067.9 1975.6 2068.27 1974.21 2069.35 1973.58L2096.85 1957.54 2096.85 1961.46 2069.35 1945.42C2068.27 1944.79 2067.9 1943.4 2068.53 1942.31 2069.17 1941.23 2070.56 1940.86 2071.64 1941.49Z"/><path d="M7.58349e-07-2.27362 1077.5-2.27326 1077.5 2.27398-7.58349e-07 2.27362ZM1051.14-18.0052 1082.01 0.000360636 1051.14 18.0059C1050.06 18.6386 1048.67 18.2723 1048.03 17.1876 1047.4 16.103 1047.77 14.7108 1048.85 14.0781L1076.35-1.96355 1076.35 1.96427 1048.85-14.0774C1047.77-14.7101 1047.4-16.1023 1048.03-17.1869 1048.67-18.2716 1050.06-18.6379 1051.14-18.0052Z" transform="matrix(-1 0 0 1 2489.5 2270.5)"/><path d="M2525.5 2289.23 2846 2289.23 2846 2293.77 2525.5 2293.77ZM2819.64 2273.49 2850.51 2291.5 2819.64 2309.51C2818.56 2310.14 2817.17 2309.77 2816.53 2308.69 2815.9 2307.6 2816.27 2306.21 2817.35 2305.58L2844.85 2289.54 2844.85 2293.46 2817.35 2277.42C2816.27 2276.79 2815.9 2275.4 2816.53 2274.31 2817.17 2273.23 2818.56 2272.86 2819.64 2273.49Z"/></g></svg>