<svg width="1191" height="998" xmlns="http://www.w3.org/2000/svg" xmlns:xlink="http://www.w3.org/1999/xlink" overflow="hidden"><defs><clipPath id="clip0"><rect x="292" y="377" width="1191" height="998"/></clipPath></defs><g clip-path="url(#clip0)" transform="translate(-292 -377)"><rect x="1003.5" y="931.5" width="309" height="95.9999" stroke="#000000" stroke-width="4.54724" stroke-linejoin="round" stroke-miterlimit="10" fill="#EAEAEA"/><text font-family="Fira Sans,Fira Sans_MSFontService,sans-serif" font-weight="400" font-size="46" transform="matrix(1 0 0 1 1073.48 995)">Drawing</text><rect x="382.5" y="1275.5" width="220" height="88.9996" stroke="#000000" stroke-width="4.54724" stroke-linejoin="round" stroke-miterlimit="10" fill="#EAEAEA"/><text font-family="Fira Sans,Fira Sans_MSFontService,sans-serif" font-weight="400" font-size="46" transform="matrix(1 0 0 1 417.689 1335)">Handle</text><rect x="1003.5" y="1275.5" width="310" height="88.9996" stroke="#000000" stroke-width="4.54724" stroke-linejoin="round" stroke-miterlimit="10" fill="#EAEAEA"/><text font-family="Fira Sans,Fira Sans_MSFontService,sans-serif" font-weight="400" font-size="46" transform="matrix(1 0 0 1 1093.81 1335)">Figure</text><rect x="373.5" y="931.5" width="225" height="89.0001" stroke="#000000" stroke-width="4.54724" stroke-linejoin="round" stroke-miterlimit="10" fill="#EAEAEA"/><text font-family="Fira Sans,Fira Sans_MSFontService,sans-serif" font-weight="400" font-size="46" transform="matrix(1 0 0 1 439.991 991)">Tool</text><path d="M486.5 460.5 486.5 650.5" stroke="#000000" stroke-width="4.54724" stroke-linejoin="round" stroke-miterlimit="10" fill="none" fill-rule="evenodd"/><path d="M453.5 518.5 521.5 518.5 487.5 473.5Z" stroke="#000000" stroke-width="4.54724" stroke-linejoin="round" stroke-miterlimit="10" fill="#FFFFFF" fill-rule="evenodd"/><path d="M1143.5 462.5 1143.5 652.5" stroke="#000000" stroke-width="4.54724" stroke-linejoin="round" stroke-miterlimit="10" fill="none" fill-rule="evenodd"/><path d="M1109.5 525.5 1177.5 525.5 1143.5 481.5Z" stroke="#000000" stroke-width="4.54724" stroke-linejoin="round" stroke-miterlimit="10" fill="#FFFFFF" fill-rule="evenodd"/><rect x="329.5" y="640.5" width="333" height="101" stroke="#000000" stroke-width="4.54724" stroke-linejoin="round" stroke-miterlimit="10" fill="#EAEAEA"/><text font-family="Fira Sans,Fira Sans_MSFontService,sans-serif" font-weight="400" font-size="46" transform="matrix(1 0 0 1 360.807 706)">DrawWindow</text><rect x="366.5" y="379.5" width="220" height="89" stroke="#000000" stroke-width="4.54724" stroke-linejoin="round" stroke-miterlimit="10" fill="#FFFFFF"/><text font-family="Fira Sans,Fira Sans_MSFontService,sans-serif" font-weight="400" font-size="46" transform="matrix(1 0 0 1 411.402 439)">Frame</text><rect x="983.5" y="640.5" width="332" height="98" stroke="#000000" stroke-width="4.54724" stroke-linejoin="round" stroke-miterlimit="10" fill="#EAEAEA"/><text font-family="Fira Sans,Fira Sans_MSFontService,sans-serif" font-weight="400" font-size="46" transform="matrix(1 0 0 1 1016.33 705)">DrawingView</text><rect x="1022.5" y="388.5" width="220" height="89" stroke="#000000" stroke-width="4.54724" stroke-linejoin="round" stroke-miterlimit="10" fill="#FFFFFF"/><text font-family="Fira Sans,Fira Sans_MSFontService,sans-serif" font-weight="400" font-size="46" transform="matrix(1 0 0 1 1073.13 448)">Panel</text><path d="M718.5 716.226 963 716.227 963 720.774 718.5 720.774ZM936.644 700.495 967.511 718.5 936.644 736.506C935.559 737.139 934.167 736.772 933.534 735.688 932.902 734.603 933.268 733.211 934.353 732.578L961.853 716.536 961.853 720.464 934.353 704.422C933.268 703.79 932.902 702.398 933.535 701.313 934.167 700.228 935.559 699.862 936.644 700.495Z"/><path d="M2.87906e-06-2.27362 280.498-2.27327 280.498 2.27398-2.87906e-06 2.27362ZM254.144-18.0053 285.01 0.000361108 254.144 18.0059C253.059 18.6386 251.667 18.2722 251.034 17.1876 250.402 16.103 250.768 14.7108 251.853 14.0781L279.353-1.96355 279.353 1.96426 251.853-14.0774C250.768-14.7101 250.402-16.1023 251.034-17.187 251.667-18.2716 253.059-18.638 254.144-18.0053Z" transform="matrix(-1 0 0 1 964.5 665.5)"/><path d="M1135.77 750.5 1135.77 913.998 1131.23 913.998 1131.23 750.5ZM1151.51 887.644 1133.5 918.51 1115.49 887.644C1114.86 886.559 1115.23 885.167 1116.31 884.534 1117.4 883.902 1118.79 884.268 1119.42 885.353L1135.46 912.853 1131.54 912.853 1147.58 885.353C1148.21 884.268 1149.6 883.902 1150.69 884.534 1151.77 885.167 1152.14 886.559 1151.51 887.644Z"/><path d="M495.774 786.5 495.774 920.998 491.227 920.998 491.227 786.5ZM511.506 894.644 493.5 925.51 475.495 894.644C474.862 893.559 475.228 892.167 476.313 891.534 477.398 890.902 478.79 891.268 479.423 892.353L495.464 919.852 491.537 919.852 507.578 892.352C508.211 891.268 509.603 890.901 510.688 891.534 511.772 892.167 512.139 893.559 511.506 894.644Z"/><path d="M1138.77 1073.5 1138.77 1244 1134.23 1244 1134.23 1073.5ZM1154.51 1217.64 1136.5 1248.51 1118.49 1217.64C1117.86 1216.56 1118.23 1215.17 1119.31 1214.53 1120.4 1213.9 1121.79 1214.27 1122.42 1215.35L1138.46 1242.85 1134.54 1242.85 1150.58 1215.35C1151.21 1214.27 1152.6 1213.9 1153.69 1214.53 1154.77 1215.17 1155.14 1216.56 1154.51 1217.64Z"/><path d="M2.21168e-06-2.27362 366.5-2.27327 366.5 2.27398-2.21168e-06 2.27362ZM340.144-18.0052 371.01 0.000361495 340.144 18.0059C339.059 18.6386 337.667 18.2722 337.034 17.1876 336.401 16.103 336.768 14.7108 337.853 14.0781L365.353-1.96355 365.353 1.96426 337.853-14.0774C336.768-14.7101 336.402-16.1023 337.034-17.187 337.667-18.2716 339.059-18.6379 340.144-18.0052Z" transform="matrix(-1 0 0 1 992.5 1324.5)"/><text font-family="Fira Sans,Fira Sans_MSFontService,sans-serif" font-weight="400" font-size="46" transform="matrix(1 0 0 1 707.551 1315)">handles<tspan font-size="46" x="-371.593" y="-492">current</tspan><tspan font-size="46" x="-302.752" y="-437">tool</tspan></text><path d="M1331.5 690.227 1480.5 690.227C1481.76 690.227 1482.77 691.245 1482.77 692.5L1482.77 1314.5C1482.77 1315.76 1481.76 1316.77 1480.5 1316.77L1336 1316.77 1336 1312.23 1480.5 1312.23 1478.23 1314.5 1478.23 692.5 1480.5 694.774 1331.5 694.774ZM1362.36 1332.51 1331.49 1314.5 1362.36 1296.49C1363.44 1295.86 1364.83 1296.23 1365.47 1297.31 1366.1 1298.4 1365.73 1299.79 1364.65 1300.42L1337.15 1316.46 1337.15 1312.54 1364.65 1328.58C1365.73 1329.21 1366.1 1330.6 1365.47 1331.69 1364.83 1332.77 1363.44 1333.14 1362.36 1332.51Z"/><path d="M1123.5 1261C1123.5 1255.2 1129.32 1250.5 1136.5 1250.5 1143.68 1250.5 1149.5 1255.2 1149.5 1261 1149.5 1266.8 1143.68 1271.5 1136.5 1271.5 1129.32 1271.5 1123.5 1266.8 1123.5 1261Z" stroke="#000000" stroke-width="4.54724" stroke-linejoin="round" stroke-miterlimit="10" fill-rule="evenodd"/><path d="M1312.5 1316C1312.5 1310.2 1318.32 1305.5 1325.5 1305.5 1332.68 1305.5 1338.5 1310.2 1338.5 1316 1338.5 1321.8 1332.68 1326.5 1325.5 1326.5 1318.32 1326.5 1312.5 1321.8 1312.5 1316Z" stroke="#000000" stroke-width="4.54724" stroke-linejoin="round" stroke-miterlimit="10" fill-rule="evenodd"/><path d="M600.5 1324C600.5 1318.2 606.097 1313.5 613 1313.5 619.904 1313.5 625.501 1318.2 625.501 1324 625.501 1329.8 619.904 1334.5 613 1334.5 606.097 1334.5 600.5 1329.8 600.5 1324Z" stroke="#000000" stroke-width="4.54724" stroke-linejoin="round" stroke-miterlimit="10" fill-rule="evenodd"/><path d="M2.27362-5.12832e-06 2.27363 4.54724-2.27361 4.54725-2.27362 5.12832e-06ZM2.27364 9.09448 2.27365 13.6417-2.27359 13.6417-2.2736 9.09449ZM2.27366 18.189 2.27367 22.7362-2.27357 22.7362-2.27358 18.189ZM2.27368 27.2835 2.27369 31.8307-2.27355 31.8307-2.27356 27.2835ZM2.2737 36.3779 2.27371 40.9252-2.27353 40.9252-2.27354 36.378ZM2.27372 45.4724 2.27373 50.0197-2.27351 50.0197-2.27352 45.4724ZM2.27375 54.5669 2.27376 59.1142-2.27349 59.1142-2.2735 54.5669ZM2.27377 63.6614 2.27378 68.2087-2.27347 68.2087-2.27348 63.6614ZM2.27379 72.7559 2.2738 77.3031-2.27345 77.3032-2.27346 72.7559ZM2.27381 81.8504 2.27382 86.3976-2.27343 86.3976-2.27344 81.8504ZM2.27383 90.9449 2.27384 95.4921-2.27341 95.4921-2.27342 90.9449ZM2.27385 100.039 2.27386 104.587-2.27339 104.587-2.2734 100.039ZM2.27387 109.134 2.27388 113.681-2.27337 113.681-2.27338 109.134ZM2.27389 118.228 2.2739 122.776-2.27334 122.776-2.27336 118.228ZM2.27391 127.323 2.27392 131.87-2.27332 131.87-2.27333 127.323ZM2.27393 136.417 2.27394 140.965-2.2733 140.965-2.27331 136.417ZM2.27395 145.512 2.27396 150.059-2.27328 150.059-2.27329 145.512ZM2.27397 154.606 2.27397 155.498-2.27327 155.498-2.27327 154.606ZM18.0059 129.144 0.000361169 160.011-18.0053 129.144C-18.638 128.059-18.2716 126.667-17.187 126.035-16.1024 125.402-14.7102 125.768-14.0775 126.853L1.96425 154.353-1.96356 154.353 14.078 126.853C14.7107 125.768 16.1029 125.402 17.1876 126.034 18.2722 126.667 18.6386 128.059 18.0059 129.144Z" transform="matrix(1 0 0 -1 1193.5 911.5)"/><text font-family="Fira Sans,Fira Sans_MSFontService,sans-serif" font-weight="400" font-size="46" transform="matrix(1 0 0 1 1166.57 851)">notification</text><path d="M2.27362-3.74673e-06 2.27398 214.498-2.27327 214.498-2.27362 3.74673e-06ZM18.0059 188.144 0.000360635 219.01-18.0053 188.144C-18.638 187.059-18.2716 185.667-17.187 185.034-16.1023 184.402-14.7102 184.768-14.0775 185.853L1.96426 213.353-1.96355 213.353 14.0781 185.853C14.7108 184.768 16.1029 184.402 17.1876 185.034 18.2722 185.667 18.6386 187.059 18.0059 188.144Z" transform="matrix(1 0 0 -1 1194.5 1255.5)"/><text font-family="Fira Sans,Fira Sans_MSFontService,sans-serif" font-weight="400" font-size="46" transform="matrix(1 0 0 1 1199.91 1154)">figure<tspan font-size="46" x="0" y="55">container</tspan></text><path d="M663.5 718.831 692.651 698.5 720.5 718.831 692.651 737.5Z" stroke="#000000" stroke-width="4.54724" stroke-linejoin="round" stroke-miterlimit="10" fill="none" fill-rule="evenodd"/><path d="M470.5 763.907 494.093 741.5 516.5 763.907 494.093 784.5Z" stroke="#000000" stroke-width="4.54724" stroke-linejoin="round" stroke-miterlimit="10" fill="none" fill-rule="evenodd"/><path d="M604.5 763.907 628.093 741.5 650.5 763.907 628.093 784.5Z" stroke="#000000" stroke-width="4.54724" stroke-linejoin="round" stroke-miterlimit="10" fill="none" fill-rule="evenodd"/><path d="M630.773 786.5 630.773 841.159 629.04 838.951 973.666 923.222 972.586 927.639 627.96 843.368C626.942 843.119 626.226 842.207 626.226 841.159L626.226 786.5ZM951.804 901.68 977.51 926.502 943.25 936.661C942.046 937.018 940.781 936.331 940.424 935.127 940.067 933.924 940.754 932.658 941.958 932.301L972.481 923.251 971.548 927.066 948.645 904.952C947.742 904.079 947.717 902.64 948.589 901.737 949.461 900.833 950.901 900.808 951.804 901.68Z"/><path d="M1113.5 1050.91 1136.58 1028.5 1158.5 1050.91 1136.58 1071.5Z" stroke="#000000" stroke-width="4.54724" stroke-linejoin="round" stroke-miterlimit="10" fill="none" fill-rule="evenodd"/></g></svg>