<svg width="1289" height="416" xmlns="http://www.w3.org/2000/svg" xmlns:xlink="http://www.w3.org/1999/xlink" overflow="hidden"><defs><clipPath id="clip0"><rect x="1775" y="672" width="1289" height="416"/></clipPath></defs><g clip-path="url(#clip0)" transform="translate(-1775 -672)"><rect x="2101.5" y="794.5" width="495" height="96.0002" stroke="#000000" stroke-width="4.54724" stroke-linejoin="round" stroke-miterlimit="10" fill="#EAEAEA"/><text font-family="Fira Sans,Fira Sans_MSFontService,sans-serif" font-weight="400" font-size="46" transform="matrix(1 0 0 1 2176.86 858)">MouseInteractor</text><rect x="1780.5" y="984.5" width="348" height="96.9999" stroke="#000000" stroke-width="4.54724" stroke-linejoin="round" stroke-miterlimit="10" fill="#EAEAEA"/><text font-family="Fira Sans,Fira Sans_MSFontService,sans-serif" font-weight="400" font-size="46" transform="matrix(1 0 0 1 1802.5 1048)">DragInteractor</text><rect x="2183.5" y="984.5" width="358" height="96.9999" stroke="#000000" stroke-width="4.54724" stroke-linejoin="round" stroke-miterlimit="10" fill="#EAEAEA"/><text font-family="Fira Sans,Fira Sans_MSFontService,sans-serif" font-weight="400" font-size="46" transform="matrix(1 0 0 1 2183.99 1048)">HandleInteractor</text><rect x="2605.5" y="984.5" width="433" height="96.9999" stroke="#000000" stroke-width="4.54724" stroke-linejoin="round" stroke-miterlimit="10" fill="#EAEAEA"/><text font-family="Fira Sans,Fira Sans_MSFontService,sans-serif" font-weight="400" font-size="46" transform="matrix(1 0 0 1 2607.56 1048)">SelectAreaInteractor</text><path d="M1941.5 983.094 1941.5 950.5 2837.16 950.5 2837.16 984.5 2839.5 984.5" stroke="#000000" stroke-width="4.54724" stroke-linejoin="round" stroke-miterlimit="10" fill="none" fill-rule="evenodd"/><path d="M2358.5 890.5 2358.5 987.5" stroke="#000000" stroke-width="4.54724" stroke-linejoin="round" stroke-miterlimit="10" fill="none" fill-rule="evenodd"/><path d="M2336.5 931.5 2379.5 931.5 2357.87 895.5Z" stroke="#000000" stroke-width="4.54724" stroke-linejoin="round" stroke-miterlimit="10" fill="#FFFFFF" fill-rule="evenodd"/><text font-family="Fira Sans,Fira Sans_MSFontService,sans-serif" font-style="italic" font-weight="400" font-size="55" transform="matrix(1 0 0 1 2443.43 740)">SelectionTool support</text></g></svg>